# xmcd
#
# Track frame offsets:
#       150
#       15459
#       23424
#       48271
#       59446
#       82116
#       97019
#
# Disc length: 1515 seconds
#
# Revision: 0
# Processed by: cddbd v1.5.2PL0 Copyright (c) Steve Scherf et al.
# Submitted via: WaveLab 4.01
#
DISCID=4c05e907
DTITLE=Emmylou Harris - Emmylou Harris Compilation
DYEAR=1900
DGENRE=
TTITLE0=All I Left Behind
TTITLE1=Bad News
TTITLE2=J'ai Fait Tout
TTITLE3=The Light
TTITLE4=The Pearl
TTITLE5=Rhythm Guitar
TTITLE6=The Sweatheart of the Rodeo
EXTD=
EXTT0=
EXTT1=
EXTT2=
EXTT3=
EXTT4=
EXTT5=
EXTT6=
PLAYORDER=
